Patient4_TMGait_0pt4_03_left_32_EMG.mot
version=1
nRows=23
nColumns=33
inDegrees=no
endheader
time	1LAddLong	2LGlutMax	3LGlutMed	4LIliopsoas	5LSemiMemb	6LBicFemLong	7LRecFem	8LVastMed	9LVastLat	10LGasMed	11LTibAnt	12lTibPost	13LPeroneusLong	14LSol	15LExtDigLong	16LFlexDigLong	17RAddLong	18RGlutMax	19RGlutMed	20RIliopsoas	21RSemiMemb	22RBicFemLong	23RRecFem	24RVastMed	25RVastLat	26RGasMed	27RTibAnt	28RTibPost	29RPeroneusLong	30RSol	31RExtDigLong	32RFlexDigLong
42.21	0.011749	-0.17578	-0.060425	-0.003662	-0.017242	0.035095	0.001984	0.006866	0.17197	0.019226	0.075836	0.004272	-0.03952	-0.06134	-0.14389	-0.031586	0.010681	-0.11856	0.38406	0.090027	-0.0383	-0.029755	0.026703	-0.015564	0.14832	0.002899	0.18036	0.010223	-0.096283	-0.02243	0.000916	-0.010986
42.211	0.014343	-0.15564	-0.06958	-0.012054	-0.029144	0.042877	-0.015564	0.018311	0.19028	-0.007019	0.001068	0.006561	-0.01358	-0.053406	0.16113	-0.027161	0.006409	-0.10559	0.46387	0.014496	-0.037842	-0.027771	-0.039215	-0.026093	0.08728	-0.004425	0.055695	-0.003967	0.02655	-0.15625	0.001984	-0.005188
42.212	0.011292	-0.13473	-0.051575	-0.01297	-0.019226	0.043182	-0.026855	0.01358	0.19302	-0.019379	-0.10407	-0.002136	0.030823	-0.07019	-0.0737	-0.014191	0.001831	-0.08194	0.38696	-0.10605	-0.032959	-0.034637	-0.019226	-0.042725	0.034943	0.003052	-0.11139	-0.00885	0.17319	0.034027	0.002289	-0.007019
42.213	0.014801	-0.11795	0.019379	0.003357	-0.020599	0.06424	-0.021515	0.016937	0.20187	-0.014038	-0.1062	0.006714	0.044403	-0.076294	-0.17822	-0.011749	0.00412	-0.075073	0.23224	-0.12466	-0.038757	-0.033569	0.060425	-0.015411	-0.030212	-0.005035	-0.21774	-0.00412	0.11063	0.2446	-0.003967	-0.003967
42.214	0.010376	-0.12116	0.039673	0.032501	-0.016785	0.056915	-0.018768	0.011597	0.21027	0.004272	0.023346	0.00473	0.029907	-0.10391	-0.044098	-0.013123	0.010529	-0.10834	0.31937	-0.093842	-0.03418	-0.018768	0.10941	-0.006866	-0.084839	-0.011902	0.159	-0.011139	0.010223	0.10468	0.00061	-0.001678
42.215	0.016785	-0.15579	0.009918	0.053558	-0.023499	0.039825	-0.032349	0.011292	0.20172	0	-0.015717	0.001221	0.052795	-0.08255	0.023041	-0.011902	-0.00061	-0.097961	0.35233	-0.001831	-0.039368	-0.027771	-0.051727	-0.056305	-0.0737	-0.00824	0.33539	-0.00351	-0.018158	0.14999	0.006561	0.002594
42.216	-0.000305	-0.12314	-0.010376	0.0354	-0.020294	0.03418	-0.023193	0.006561	0.19882	0.009918	-0.020905	0.005798	0.020905	-0.073395	0.03006	-0.012512	-0.009918	-0.11536	0.4068	0.10284	-0.048218	-0.023193	-0.16586	-0.10422	-0.031891	-0.011597	0.20477	0.002899	0.001984	-0.027771	-0.000153	-0.001678
42.217	0.002747	-0.16327	-0.00824	0.011292	-0.019226	0.039063	-0.013123	0.015564	0.20096	0.002136	0.006561	0.007477	0.00885	-0.087128	0.028992	-0.008698	0.001373	-0.09491	0.41077	0.16663	-0.059967	-0.041504	-0.015869	-0.081787	-0.015869	0.002747	0.037689	-0.000763	-0.056763	0.45044	-0.001373	-0.003662
42.218	0.002899	-0.12955	-0.051422	-0.009613	-0.017548	0.034332	-0.031586	0.011749	0.19409	-0.012817	-0.040436	0.011444	0.032196	-0.14358	-0.006866	-0.000153	0.011749	-0.068817	-0.018158	0.11169	-0.000458	-0.041656	0.069885	-0.005188	-0.009918	-0.005188	-0.053558	-0.005341	-0.093079	0.60181	0.001678	-0.00061
42.219	-0.000916	-0.1561	-0.078735	-0.009155	-0.021057	0.026245	-0.025635	0.003967	0.19714	0.006866	0.002136	0.007935	0.007324	-0.054016	0.037079	0	0.015411	-0.041351	0.15472	0.000305	-0.012054	-0.031281	0.14999	-0.017242	0.016174	0.005798	-0.53986	-0.012054	0.069427	0.20966	0.000916	-0.002899
42.22	0.001373	-0.15945	0.001221	0.003815	-0.014343	0.047913	-0.044861	0.009766	0.20554	-0.011292	0.054169	0.007629	-0.024872	-0.094757	0.021973	-0.007019	0.016022	0.022125	0.18524	-0.02655	-0.039825	-0.04837	0.1532	-0.046539	0.033875	0.007172	-0.37735	-0.024567	0.12283	-0.050812	0.001526	-0.005798
42.221	0.001831	-0.15182	0.10376	0.001831	-0.011292	0.033112	-0.044403	0.007629	0.19531	-0.017242	0.073547	0.006256	-0.050812	-0.13245	0.48065	-0.01236	0.000458	-0.020905	0.59952	-0.021973	-0.071564	-0.038757	0.11963	-0.020447	0.019226	0.011902	-0.33524	-0.065613	-0.018616	-0.059357	0.003357	-0.00061
42.222	-0.00061	-0.1709	0.07309	-0.00946	-0.024109	0.046844	-0.035248	0.011444	0.19302	-0.009308	0.028992	0.004272	-0.031433	-0.043945	-0.075989	0.000458	0	-0.067749	1.7676	-0.028229	-0.019073	-0.019684	0.18875	-0.14969	0.003052	0.00473	0.37582	0.001984	-0.13458	-0.11215	0.003815	-0.010529
42.223	-0.008087	-0.16144	0.069885	-0.021515	-0.003357	0.049744	-0.029755	0.007019	0.20142	-0.027771	-0.056305	0.007477	0.007324	-0.029907	0.25757	-0.003967	0.007629	-0.11078	0.73486	-0.005951	-0.011597	-0.027008	0.13229	-0.1445	-0.029907	0.012207	0.41382	0.070496	-0.16632	-0.10941	-0.004578	-0.015717
42.224	0.007324	-0.15228	0.074158	-0.00946	-0.01236	0.049744	-0.012512	0.009003	0.18784	-0.045319	0.040436	0.006714	0.019836	-0.056152	0.006256	0.00412	-0.010529	-0.066223	0.49515	0.00946	-0.010223	-0.020142	-0.048523	-0.19241	-0.15564	-0.001678	0.017853	0.017242	-0.11566	-0.18005	0.000458	-0.019989
42.225	0.006104	-0.15991	0.057678	-0.007324	-0.016479	0.046692	-0.031281	0.006409	0.19226	-0.027161	-0.02533	0.009003	-0.000305	-0.048523	-0.27466	-0.000305	-0.01297	-0.039978	0.65933	0.052643	-0.034943	-0.010071	-0.25696	-0.13962	-0.12192	-0.032654	-0.37598	0.000763	-0.034485	-0.099335	0.000458	-0.014343
42.226	0.01297	-0.14358	0.050201	0.013885	-0.014801	0.037842	-0.02121	0.006256	0.18372	-0.032043	-0.013885	0.007935	-0.012054	-0.068512	-0.35919	-0.000305	-0.015717	0.010986	1.2062	0.061035	-0.01709	-0.002289	-0.23224	-0.18372	-0.046387	-0.037079	-0.54016	-0.002289	0.14206	-0.11871	0.006561	-0.004272
42.227	0.007172	-0.13168	0.016174	0.002289	-0.00885	0.04303	-0.023956	0.008392	0.18982	-0.03067	-0.1001	0.005188	0.037384	-0.09903	-0.25559	-0.00946	0.001984	0.018158	1.2027	0.068054	-0.020142	-0.013428	-0.09079	-0.11002	-0.12985	-0.003357	-0.25742	-0.004578	0.16342	-0.040283	-0.004272	0.002899
42.228	0.002594	-0.12131	0.005646	0.002136	-0.022736	0.05249	-0.024414	0.003967	0.18768	-0.029449	-0.10437	0.003052	0.06897	-0.10056	-0.15152	-0.007324	-0.009613	0.052643	0.71289	0.077057	0.080872	-0.014343	-0.18509	0.074921	-0.05249	0.015411	-0.008392	-0.00824	0.040283	0.049133	0.003204	-0.001221
42.229	0.007172	-0.10239	-0.003662	0.00824	-0.028229	0.054932	-0.026245	0.005646	0.1796	-0.012207	-0.035706	0.001984	0.016937	-0.13168	-0.056763	0.003967	-0.012817	0.031891	0.017548	0.003815	0.052795	-0.019531	-0.072937	0.13748	0.051575	0.014191	0.27069	-0.001068	-0.048981	-0.023193	0.001221	-0.009766
42.23	-0.003357	-0.11795	-0.024872	0.00946	-0.019684	0.043488	-0.023346	0.003357	0.16266	0.00412	-0.046539	-0.001373	-0.001068	-0.07782	-0.018616	0.000763	-0.004578	0.061951	-0.085297	-0.13687	0.030212	-0.037079	0.1944	0.096283	-0.081787	-0.002899	0.40985	-0.00824	-0.15228	-0.09552	0.001373	-0.007477
42.231	-0.000763	-0.10574	-0.027924	-0.001678	-0.00946	0.055695	-0.045624	0.004578	0.16403	-0.003967	-0.056	0.000763	-0.005798	-0.10117	0.030975	0.007324	0.002441	0.13748	0.41504	-0.17639	-0.000305	-0.040894	0.25543	0.062408	-0.084686	0.001526	0.30838	-0.006409	-0.10742	-0.029144	-0.000153	-0.010071
42.232	-0.003662	-0.08728	-0.029602	0.006561	-0.023956	0.041809	-0.031586	0.007324	0.16861	-0.005798	-0.019989	0.00412	-0.031433	-0.10239	0.11261	0.005341	0.00351	0.13351	0.97305	-0.17807	0.000458	-0.030518	0.31006	0.032501	-0.026703	-0.008392	0.20691	-0.007324	0.013733	0.12543	0.003357	-0.001984
